<svg xmlns="http://www.w3.org/2000/svg" xmlns:xlink="http://www.w3.org/1999/xlink" viewBox="0 0 500 341.21"><defs><linearGradient id="linear-gradient" x1="254.78" y1="57.95" x2="249.98" y2="256.04" gradientUnits="userSpaceOnUse"><stop offset="0" stop-color="#d479b1"/><stop offset="0.99" stop-color="#4376bb"/></linearGradient><linearGradient id="linear-gradient-2" x1="66.61" y1="248" x2="87.04" y2="248" gradientUnits="userSpaceOnUse"><stop offset="0" stop-color="#6f489d"/><stop offset="1" stop-color="#39266c"/></linearGradient><linearGradient id="linear-gradient-3" x1="412.96" y1="248" x2="433.39" y2="248" xlink:href="#linear-gradient-2"/><linearGradient id="linear-gradient-4" x1="260.61" y1="119.8" x2="247.4" y2="223.07" xlink:href="#linear-gradient-2"/><linearGradient id="linear-gradient-5" x1="218.73" y1="186.96" x2="263.16" y2="308.25" gradientUnits="userSpaceOnUse"><stop offset="0" stop-color="#8854a2"/><stop offset="0.99" stop-color="#544a9e"/></linearGradient><linearGradient id="linear-gradient-6" x1="239.1" y1="197.52" x2="266.72" y2="436.49" xlink:href="#linear-gradient"/><linearGradient id="linear-gradient-7" x1="186.12" y1="184.53" x2="326.1" y2="422.34" gradientUnits="userSpaceOnUse"><stop offset="0" stop-color="#d6eff7"/><stop offset="0.99" stop-color="#668dc8"/></linearGradient><linearGradient id="linear-gradient-8" x1="252.87" y1="78.88" x2="246.87" y2="295.03" gradientUnits="userSpaceOnUse"><stop offset="0" stop-color="#ba9ecb"/><stop offset="0.99" stop-color="#6b6ab0"/></linearGradient><linearGradient id="linear-gradient-9" x1="185.23" y1="427.52" x2="406.19" y2="-43.22" xlink:href="#linear-gradient-7"/><linearGradient id="linear-gradient-10" x1="88.77" y1="372.04" x2="561.91" y2="-119.11" xlink:href="#linear-gradient-7"/><linearGradient id="linear-gradient-11" x1="250" y1="185.26" x2="250" y2="390" gradientUnits="userSpaceOnUse"><stop offset="0" stop-color="#9cc2e7" stop-opacity="0"/><stop offset="0.08" stop-color="#afd0ee"/><stop offset="0.12" stop-color="#adcfed" stop-opacity="0.92"/><stop offset="0.27" stop-color="#a8cbec" stop-opacity="0.64"/><stop offset="0.41" stop-color="#a4c8ea" stop-opacity="0.41"/><stop offset="0.54" stop-color="#a0c5e9" stop-opacity="0.24"/><stop offset="0.65" stop-color="#9ec3e8" stop-opacity="0.11"/><stop offset="0.75" stop-color="#9dc2e7" stop-opacity="0.03"/><stop offset="0.82" stop-color="#9cc2e7" stop-opacity="0"/></linearGradient></defs><g style="isolation:isolate"><g id="Layer_3" data-name="Layer 3"><path d="M250.84,84.9C81.49,84.9,69.93,220.65,69.93,220.65L118.66,243l12.4-57.11c8.71-34.92,39.35-45.16,72.58-51,31.13-5.49,66.86-6.51,97.84.31,30.41,6.7,62,17.78,69.14,50.72L383,243l48.74-22.35S420.19,84.9,250.84,84.9Z" transform="translate(0 -79.72)" style="fill:url(#linear-gradient)"/><path d="M66.61,229.24v47.22a11.76,11.76,0,0,0,4.57,9.3l12.54,9.71L87,200.54S66.61,208.81,66.61,229.24Z" transform="translate(0 -79.72)" style="fill:url(#linear-gradient-2)"/><path d="M433.39,229.24v47.22a11.76,11.76,0,0,1-4.57,9.3l-12.55,9.71L413,200.54S433.39,208.81,433.39,229.24Z" transform="translate(0 -79.72)" style="fill:url(#linear-gradient-3)"/><path d="M371.49,169.38c-23.77,7-64.83,12.47-121,12.47s-97.25-5.45-121-12.47-31.88,25.93-31.88,25.93v7.57H403.37v-7.57S395.27,162.35,371.49,169.38Z" transform="translate(0 -79.72)" style="fill:url(#linear-gradient-4)"/><path d="M350.17,188.41H150.76s-73-7.58-73,33.74V330.28s.69,7.57,20.67,17.22S141.8,364,207.92,364.71l14.59-11.46A20.11,20.11,0,0,1,233.15,349l17.31-.16,17.32.16a20.11,20.11,0,0,1,10.64,4.22L293,364.71c66.12-.69,89.53-7.57,109.5-17.21s20.66-17.22,20.66-17.22V222.15C423.17,180.83,350.17,188.41,350.17,188.41Z" transform="translate(0 -79.72)" style="fill:url(#linear-gradient-5)"/><path d="M350.17,221.39H150.76s-73-6.49-73,28.89v92.6s.69,6.49,20.67,14.74c18.33,7.58,39.56,13.17,94.06,14.5a47.25,47.25,0,0,0,27.36-7.77l2.67-1.8a22.16,22.16,0,0,1,10.64-3.61l17.31-.14,17.32.14a22.16,22.16,0,0,1,10.64,3.61l2.66,1.79a47.27,47.27,0,0,0,27.38,7.78c54.49-1.33,75.72-6.92,94.05-14.5,20-8.25,20.66-14.74,20.66-14.74v-92.6C423.17,214.9,350.17,221.39,350.17,221.39Z" transform="translate(0 -79.72)" style="fill:url(#linear-gradient-6)"/><path d="M363.12,228c-7.11,0-12.05.42-12.1.43l-.42,0H150.33l-.42,0s-5-.43-12.1-.43C118.47,228,86,230.89,86,250.28v91.31c.91,1.19,4.44,4.89,16,9.66,15.38,6.36,33.92,12.17,87.26,13.7a47.65,47.65,0,0,0,27.83-7.76,32.58,32.58,0,0,1,15.65-5.32l17.79-.14,17.64.14a32.53,32.53,0,0,1,15.64,5.31h0A47.65,47.65,0,0,0,311.67,365c53.33-1.53,71.87-7.34,87.25-13.7,11.54-4.77,15.08-8.47,16-9.66V250.28C414.91,230.89,382.46,228,363.12,228Z" transform="translate(0 -79.72)" style="fill:url(#linear-gradient-7)"/><path d="M251.25,79.72c-17.82,0-28.6,5.88-28.6,5.88V189.11h57.2V85.6S269.07,79.72,251.25,79.72Z" transform="translate(0 -79.72)" style="fill:url(#linear-gradient-8)"/><g style="mix-blend-mode:lighten"><path d="M258.39,228.46,159.06,363.38c8.64.7,18.6,1.24,30.21,1.57a47.65,47.65,0,0,0,27.83-7.76,32.58,32.58,0,0,1,15.65-5.32l11.4-.09,90.79-123.32Z" transform="translate(0 -79.72)" style="fill:url(#linear-gradient-9)"/><path d="M187.69,228.46,98.44,349.69c1.1.51,2.28,1,3.57,1.56,9,3.73,19.13,7.27,36.68,9.86l97.66-132.65Z" transform="translate(0 -79.72)" style="fill:url(#linear-gradient-10)"/></g><polygon points="500 341.21 0 341.21 80.2 180.76 419.8 180.76 500 341.21" style="mix-blend-mode:darken;fill:url(#linear-gradient-11)"/></g></g></svg>