<svg id="Layer_2" data-name="Layer 2" xmlns="http://www.w3.org/2000/svg" xmlns:xlink="http://www.w3.org/1999/xlink" viewBox="0 0 500 357.45"><defs><linearGradient id="linear-gradient" x1="130.41" y1="63.81" x2="119.56" y2="111.43" gradientUnits="userSpaceOnUse"><stop offset="0" stop-color="#d479b1"/><stop offset="0.99" stop-color="#4376bb"/></linearGradient><linearGradient id="linear-gradient-2" x1="352.74" y1="62.84" x2="376.95" y2="106.8" xlink:href="#linear-gradient"/><linearGradient id="linear-gradient-3" x1="250" y1="162.09" x2="250" y2="410.43" gradientUnits="userSpaceOnUse"><stop offset="0" stop-color="#6f489d"/><stop offset="1" stop-color="#39266c"/></linearGradient><linearGradient id="linear-gradient-4" x1="251.31" y1="95.07" x2="248.89" y2="553.18" gradientUnits="userSpaceOnUse"><stop offset="0" stop-color="#8854a2"/><stop offset="0.99" stop-color="#544a9e"/></linearGradient><linearGradient id="linear-gradient-5" x1="259.85" y1="74.06" x2="249" y2="370.63" xlink:href="#linear-gradient-4"/><linearGradient id="linear-gradient-6" x1="188.96" y1="134.4" x2="187.15" y2="216.98" xlink:href="#linear-gradient-4"/><linearGradient id="linear-gradient-7" x1="187.95" y1="156.96" x2="187.95" y2="270.89" xlink:href="#linear-gradient-3"/><linearGradient id="linear-gradient-8" x1="151.96" y1="233.12" x2="215.29" y2="233.12" gradientTransform="translate(329.29 -25.43) rotate(67.62)" gradientUnits="userSpaceOnUse"><stop offset="0" stop-color="#ba9ecb"/><stop offset="0.99" stop-color="#6b6ab0"/></linearGradient><linearGradient id="linear-gradient-9" x1="181.47" y1="215.72" x2="190.51" y2="288.66" gradientTransform="matrix(1, 0, 0, 1, 0, 0)" xlink:href="#linear-gradient-8"/><linearGradient id="linear-gradient-10" x1="293.43" y1="118.7" x2="294.64" y2="220.87" xlink:href="#linear-gradient-4"/><linearGradient id="linear-gradient-11" x1="294.16" y1="156.96" x2="294.16" y2="270.89" xlink:href="#linear-gradient-3"/><linearGradient id="linear-gradient-12" x1="258.18" y1="233.12" x2="321.51" y2="233.12" gradientTransform="translate(395.07 -123.64) rotate(67.62)" xlink:href="#linear-gradient-8"/><linearGradient id="linear-gradient-13" x1="286.08" y1="202.76" x2="295.12" y2="275.69" gradientTransform="matrix(1, 0, 0, 1, 0, 0)" xlink:href="#linear-gradient-8"/><linearGradient id="linear-gradient-14" x1="377.14" y1="117.72" x2="376.84" y2="175.29" xlink:href="#linear-gradient-4"/><linearGradient id="linear-gradient-15" x1="372.38" y1="51.82" x2="380.82" y2="97.63" gradientUnits="userSpaceOnUse"><stop offset="0" stop-color="#d6eff7"/><stop offset="0.99" stop-color="#668dc8"/></linearGradient><linearGradient id="linear-gradient-16" x1="377.38" y1="177.91" x2="376.77" y2="221.61" xlink:href="#linear-gradient-4"/><linearGradient id="linear-gradient-17" x1="373.52" y1="116.07" x2="380.15" y2="151.63" xlink:href="#linear-gradient-15"/><linearGradient id="linear-gradient-18" x1="407.84" y1="140" x2="407.24" y2="188.82" xlink:href="#linear-gradient-4"/><linearGradient id="linear-gradient-19" x1="400.65" y1="155.96" x2="413.91" y2="197.55" xlink:href="#linear-gradient-15"/><linearGradient id="linear-gradient-20" x1="349.66" y1="150" x2="350.57" y2="195.21" xlink:href="#linear-gradient-4"/><linearGradient id="linear-gradient-21" x1="346.45" y1="160.07" x2="354.29" y2="195.63" xlink:href="#linear-gradient-15"/><linearGradient id="linear-gradient-22" x1="114.18" y1="22.43" x2="117.8" y2="155.04" xlink:href="#linear-gradient-4"/><linearGradient id="linear-gradient-23" x1="135.4" y1="17.28" x2="105.26" y2="139.04" xlink:href="#linear-gradient"/><linearGradient id="linear-gradient-24" x1="103.62" y1="126.35" x2="122.9" y2="188.44" xlink:href="#linear-gradient-15"/><linearGradient id="linear-gradient-25" x1="218.84" y1="90.69" x2="218.24" y2="132.88" gradientUnits="userSpaceOnUse"><stop offset="0" stop-color="#d479b1"/><stop offset="0.99" stop-color="#71459b"/></linearGradient><linearGradient id="linear-gradient-26" x1="275.61" y1="91.5" x2="275.01" y2="133.69" xlink:href="#linear-gradient-25"/></defs><path d="M95.64,78c17.21-3.54,34.64-6.07,52.27-6.28,5.83-.14,10.82,6,10.66,13.27a238.94,238.94,0,0,1-4.9,44.06c-20.9-6-42.51-7.82-64.11-8.1a169.5,169.5,0,0,0-2.38-31.71C86.31,84.3,89.94,79.24,95.64,78Z" transform="translate(0 -71.73)" style="fill:url(#linear-gradient)"/><path d="M401.93,78c-17.22-3.54-34.64-6.07-52.27-6.28-5.84-.14-10.83,6-10.66,13.27a238.93,238.93,0,0,0,4.89,44.06c20.91-6,42.51-7.82,64.11-8.1a169.5,169.5,0,0,1,2.39-31.71C411.26,84.3,407.63,79.24,401.93,78Z" transform="translate(0 -71.73)" style="fill:url(#linear-gradient-2)"/><path d="M495.14,313.18c-4.13-20.44-10.19-40.62-15.32-59-10.71-38.45-24.36-76-38.73-113.24A63.35,63.35,0,0,0,382,100.39H367.55a63.36,63.36,0,0,0-42.44,16.31l-11,9.9a73.32,73.32,0,0,1-49.07,18.85H235a73.32,73.32,0,0,1-49.07-18.85l-11-9.9a63.36,63.36,0,0,0-42.44-16.31H118a63.35,63.35,0,0,0-59.13,40.55c-14.37,37.21-28,74.79-38.73,113.24-5.13,18.38-11.19,38.56-15.32,59C.11,336.69-2.09,360.56,2.61,382.5c8.75,40.86,61.62,62.13,95.25,33.6,18.33-15.56,45.66-47.44,64.59-70.46A73.23,73.23,0,0,1,219,318.88h62a73.23,73.23,0,0,1,56.55,26.76c18.93,23,46.26,54.9,64.59,70.46,33.63,28.53,86.5,7.26,95.25-33.6C502.09,360.56,499.89,336.69,495.14,313.18Z" transform="translate(0 -71.73)" style="fill:url(#linear-gradient-3)"/><path d="M495.14,300.09c-4.13-20.45-10.19-40.62-15.32-59-10.71-38.45-24.36-76-38.73-113.25A63.36,63.36,0,0,0,382,87.3H367.55a63.4,63.4,0,0,0-42.44,16.3l-11,9.91a73.31,73.31,0,0,1-49.07,18.84H235a73.31,73.31,0,0,1-49.07-18.84l-11-9.91a63.4,63.4,0,0,0-42.44-16.3H118a63.36,63.36,0,0,0-59.13,40.54c-14.37,37.22-28,74.8-38.73,113.25-5.13,18.38-11.19,38.55-15.32,59C.11,323.6-2.09,347.47,2.61,369.4c8.75,40.87,61.62,62.13,95.25,33.6,18.33-15.55,45.66-47.44,64.59-70.46A73.22,73.22,0,0,1,219,305.79h62a73.22,73.22,0,0,1,56.55,26.75c18.93,23,46.26,54.91,64.59,70.46,33.63,28.53,86.5,7.27,95.25-33.6C502.09,347.47,499.89,323.6,495.14,300.09Z" transform="translate(0 -71.73)" style="fill:url(#linear-gradient-4)"/><path d="M497.39,344c-8.75,30.32-61.62,46.1-95.25,24.93-18.33-11.54-45.66-35.21-64.59-52.29-13.91-12.55-34.65-19.85-56.55-19.85H219c-21.9,0-42.64,7.3-56.55,19.85-18.93,17.08-46.26,40.75-64.59,52.29C64.23,390.12,11.36,374.34,2.61,344a65.7,65.7,0,0,1-2.2-11.71C-.41,345,.05,357.49,2.61,369.4c8.75,40.87,61.62,62.13,95.25,33.6,18.33-15.55,45.66-47.44,64.59-70.46A73.22,73.22,0,0,1,219,305.79h62a73.22,73.22,0,0,1,56.55,26.75c18.93,23,46.26,54.91,64.59,70.46,33.63,28.53,86.5,7.27,95.25-33.6,2.56-11.91,3-24.4,2.2-37.09A65.7,65.7,0,0,1,497.39,344Z" transform="translate(0 -71.73)" style="fill:url(#linear-gradient-5)"/><circle cx="187.95" cy="180.53" r="44.16" style="fill:url(#linear-gradient-6)"/><circle cx="187.95" cy="180.53" r="37.99" style="fill:url(#linear-gradient-7)"/><circle cx="183.63" cy="233.12" r="31.66" transform="translate(-101.85 242.45) rotate(-67.62)" style="fill:url(#linear-gradient-8)"/><path d="M209.74,233.12a26.11,26.11,0,1,0-26.11,26.11A26.11,26.11,0,0,0,209.74,233.12Z" transform="translate(0 -71.73)" style="fill:url(#linear-gradient-9)"/><circle cx="294.16" cy="180.53" r="44.16" style="fill:url(#linear-gradient-10)"/><circle cx="294.16" cy="180.53" r="37.99" style="fill:url(#linear-gradient-11)"/><circle cx="289.84" cy="233.12" r="31.66" transform="translate(-36.07 340.66) rotate(-67.62)" style="fill:url(#linear-gradient-12)"/><path d="M316,233.12a26.11,26.11,0,1,0-26.11,26.11A26.11,26.11,0,0,0,316,233.12Z" transform="translate(0 -71.73)" style="fill:url(#linear-gradient-13)"/><path d="M395,148.54C395,157,387,163.82,377,163.82s-18.05-6.84-18.05-15.28S367,133.25,377,133.25,395,140.1,395,148.54Z" transform="translate(0 -71.73)" style="fill:url(#linear-gradient-14)"/><ellipse cx="376.98" cy="76.81" rx="14.35" ry="12.15" style="fill:url(#linear-gradient-15)"/><path d="M395,206.37c0,8.44-8.09,15.28-18.06,15.28s-18.05-6.84-18.05-15.28S367,191.09,377,191.09,395,197.93,395,206.37Z" transform="translate(0 -71.73)" style="fill:url(#linear-gradient-16)"/><ellipse cx="376.98" cy="134.64" rx="14.35" ry="12.15" style="fill:url(#linear-gradient-17)"/><path d="M425.44,177.09c0,8.44-8.08,15.28-18.05,15.28s-18.06-6.84-18.06-15.28,8.09-15.28,18.06-15.28S425.44,168.65,425.44,177.09Z" transform="translate(0 -71.73)" style="fill:url(#linear-gradient-18)"/><path d="M421.74,177.09c0,6.71-6.43,12.14-14.35,12.14S393,183.8,393,177.09s6.42-12.15,14.35-12.15S421.74,170.38,421.74,177.09Z" transform="translate(0 -71.73)" style="fill:url(#linear-gradient-19)"/><path d="M368.26,177.09c0,8.44-8.08,15.28-18.05,15.28s-18.06-6.84-18.06-15.28,8.08-15.28,18.06-15.28S368.26,168.65,368.26,177.09Z" transform="translate(0 -71.73)" style="fill:url(#linear-gradient-20)"/><path d="M364.56,177.09c0,6.71-6.43,12.14-14.35,12.14s-14.35-5.43-14.35-12.14,6.42-12.15,14.35-12.15S364.56,170.38,364.56,177.09Z" transform="translate(0 -71.73)" style="fill:url(#linear-gradient-21)"/><circle cx="116.16" cy="95.01" r="41.61" style="fill:url(#linear-gradient-22)"/><circle cx="116.16" cy="95.01" r="37.42" style="fill:url(#linear-gradient-23)"/><path d="M137.86,158.47H127.63a3.19,3.19,0,0,1-3.19-3.19V145a3.19,3.19,0,0,0-3.2-3.19H111.08a3.19,3.19,0,0,0-3.19,3.19v10.24a3.19,3.19,0,0,1-3.19,3.19H94.46a3.19,3.19,0,0,0-3.19,3.19v10.16A3.19,3.19,0,0,0,94.46,175H104.7a3.19,3.19,0,0,1,3.19,3.19v10.24a3.19,3.19,0,0,0,3.19,3.19h10.16a3.19,3.19,0,0,0,3.2-3.19V178.2a3.19,3.19,0,0,1,3.19-3.19h10.23a3.19,3.19,0,0,0,3.2-3.19V161.66A3.19,3.19,0,0,0,137.86,158.47Z" transform="translate(0 -71.73)" style="fill:url(#linear-gradient-24)"/><rect x="196.6" y="94.45" width="44.13" height="16.62" rx="3.06" style="fill:url(#linear-gradient-25)"/><rect x="253.39" y="94.45" width="44.13" height="16.62" rx="3.06" style="fill:url(#linear-gradient-26)"/></svg>