<svg id="Layer_3" data-name="Layer 3" xmlns="http://www.w3.org/2000/svg" xmlns:xlink="http://www.w3.org/1999/xlink" viewBox="0 0 426.56 500"><defs><linearGradient id="linear-gradient" x1="245.2" y1="166.32" x2="478.91" y2="166.32" gradientTransform="translate(-42.99 172.13) rotate(-16.36)" gradientUnits="userSpaceOnUse"><stop offset="0" stop-color="#ba9ecb"/><stop offset="0.99" stop-color="#6b6ab0"/></linearGradient><linearGradient id="linear-gradient-2" x1="245.2" y1="164.15" x2="478.91" y2="164.15" gradientTransform="translate(-42.99 172.13) rotate(-16.36)" gradientUnits="userSpaceOnUse"><stop offset="0" stop-color="#6f489d"/><stop offset="1" stop-color="#39266c"/></linearGradient><linearGradient id="linear-gradient-3" x1="361.91" y1="108" x2="363.35" y2="221.04" xlink:href="#linear-gradient"/><linearGradient id="linear-gradient-4" x1="311.57" y1="301.76" x2="331.62" y2="301.76" gradientTransform="matrix(1, 0, 0, 1, 28.97, 69.37)" gradientUnits="userSpaceOnUse"><stop offset="0" stop-color="#8854a2"/><stop offset="0.99" stop-color="#544a9e"/></linearGradient><linearGradient id="linear-gradient-5" x1="362.05" y1="235.28" x2="362.05" y2="458.45" gradientTransform="translate(-42.99 172.13) rotate(-16.36)" gradientUnits="userSpaceOnUse"><stop offset="0" stop-color="#d479b1"/><stop offset="0.99" stop-color="#71459b"/></linearGradient><linearGradient id="linear-gradient-6" x1="366.36" y1="156.4" x2="343.17" y2="328.85" xlink:href="#linear-gradient"/><linearGradient id="linear-gradient-7" x1="300.93" y1="96.63" x2="360.83" y2="239.61" gradientUnits="userSpaceOnUse"><stop offset="0" stop-color="#d479b1"/><stop offset="0.99" stop-color="#4376bb"/></linearGradient><linearGradient id="linear-gradient-8" x1="361.24" y1="82.67" x2="355.92" y2="204.88" gradientTransform="translate(-31.79 66.81)" xlink:href="#linear-gradient-2"/><linearGradient id="linear-gradient-9" x1="360.22" y1="92.66" x2="352.97" y2="151.1" gradientTransform="translate(-32.93 66.98)" xlink:href="#linear-gradient"/><linearGradient id="linear-gradient-10" x1="309.93" y1="275.85" x2="317.9" y2="401.93" gradientTransform="translate(-42.99 172.13) rotate(-16.36)" xlink:href="#linear-gradient-7"/><linearGradient id="linear-gradient-11" x1="341.26" y1="158.99" x2="349.96" y2="240.38" gradientTransform="matrix(0.85, 0.53, -0.53, 0.85, 153.52, -85.8)" xlink:href="#linear-gradient"/><linearGradient id="linear-gradient-12" x1="343.87" y1="182.26" x2="350.03" y2="245.3" xlink:href="#linear-gradient-2"/><linearGradient id="linear-gradient-13" x1="350.98" y1="206.69" x2="333.26" y2="160.09" gradientTransform="translate(-42.99 172.13) rotate(-16.36)" gradientUnits="userSpaceOnUse"><stop offset="0" stop-color="#d6eff7"/><stop offset="0.99" stop-color="#668dc8"/></linearGradient><linearGradient id="linear-gradient-14" x1="340.02" y1="162.88" x2="347.63" y2="223.02" xlink:href="#linear-gradient-13"/><linearGradient id="linear-gradient-15" x1="409.31" y1="246.81" x2="417.53" y2="271.2" xlink:href="#linear-gradient"/><linearGradient id="linear-gradient-16" x1="386.08" y1="176.88" x2="396.47" y2="211.66" gradientTransform="translate(-42.99 172.13) rotate(-16.36)" xlink:href="#linear-gradient-7"/><linearGradient id="linear-gradient-17" x1="387.65" y1="205.95" x2="398.76" y2="258.61" xlink:href="#linear-gradient"/><linearGradient id="linear-gradient-18" x1="386.16" y1="202.45" x2="396.79" y2="236.75" gradientTransform="translate(-42.99 172.13) rotate(-16.36)" xlink:href="#linear-gradient-7"/><linearGradient id="linear-gradient-19" x1="389.58" y1="332.53" x2="423.63" y2="484.68" gradientTransform="matrix(1, 0, 0, 1, 0, 0)" xlink:href="#linear-gradient-5"/><linearGradient id="linear-gradient-20" x1="8.9" y1="206.27" x2="242.59" y2="206.27" gradientTransform="translate(84.51 -122.85) rotate(15.77)" xlink:href="#linear-gradient"/><linearGradient id="linear-gradient-21" x1="8.9" y1="204.1" x2="242.59" y2="204.1" gradientTransform="translate(84.51 -122.85) rotate(15.77)" xlink:href="#linear-gradient-2"/><linearGradient id="linear-gradient-22" x1="125.59" y1="147.95" x2="127.04" y2="260.98" gradientTransform="translate(84.51 -122.85) rotate(15.77)" xlink:href="#linear-gradient"/><linearGradient id="linear-gradient-23" x1="75.27" y1="341.7" x2="95.31" y2="341.7" gradientTransform="translate(-11.53 -112.53)" xlink:href="#linear-gradient-4"/><linearGradient id="linear-gradient-24" x1="125.74" y1="275.22" x2="125.74" y2="498.39" gradientTransform="translate(84.51 -122.85) rotate(15.77)" xlink:href="#linear-gradient-5"/><linearGradient id="linear-gradient-25" x1="130.05" y1="196.35" x2="106.86" y2="368.8" gradientTransform="translate(84.51 -122.85) rotate(15.77)" xlink:href="#linear-gradient"/><linearGradient id="linear-gradient-26" x1="180.61" y1="-11.67" x2="145.83" y2="133.24" xlink:href="#linear-gradient-7"/><linearGradient id="linear-gradient-27" x1="124.93" y1="122.62" x2="119.61" y2="244.83" gradientTransform="translate(300.2 -86.91) rotate(90)" xlink:href="#linear-gradient-2"/><linearGradient id="linear-gradient-28" x1="123.91" y1="132.61" x2="116.66" y2="191.06" gradientTransform="translate(297.26 -90.8) rotate(90)" xlink:href="#linear-gradient"/><linearGradient id="linear-gradient-29" x1="73.63" y1="315.8" x2="81.6" y2="441.87" gradientTransform="translate(84.51 -122.85) rotate(15.77)" xlink:href="#linear-gradient-7"/><linearGradient id="linear-gradient-30" x1="104.96" y1="198.94" x2="113.65" y2="280.33" gradientTransform="translate(84.51 -122.85) rotate(15.77)" xlink:href="#linear-gradient"/><linearGradient id="linear-gradient-31" x1="107.56" y1="222.21" x2="113.72" y2="285.25" gradientTransform="translate(84.51 -122.85) rotate(15.77)" xlink:href="#linear-gradient-2"/><linearGradient id="linear-gradient-32" x1="114.67" y1="246.64" x2="96.95" y2="200.04" gradientTransform="translate(84.51 -122.85) rotate(15.77)" xlink:href="#linear-gradient-13"/><linearGradient id="linear-gradient-33" x1="103.71" y1="202.83" x2="111.32" y2="262.97" gradientTransform="matrix(0.71, 0.7, -0.7, 0.71, 208.3, -112.26)" xlink:href="#linear-gradient-13"/><linearGradient id="linear-gradient-34" x1="173" y1="286.75" x2="181.21" y2="311.15" gradientTransform="translate(84.51 -122.85) rotate(15.77)" xlink:href="#linear-gradient"/><linearGradient id="linear-gradient-35" x1="149.77" y1="216.83" x2="160.16" y2="251.61" gradientTransform="translate(84.51 -122.85) rotate(15.77)" xlink:href="#linear-gradient-7"/><linearGradient id="linear-gradient-36" x1="151.34" y1="245.9" x2="162.45" y2="298.55" gradientTransform="translate(84.51 -122.85) rotate(15.77)" xlink:href="#linear-gradient"/><linearGradient id="linear-gradient-37" x1="149.85" y1="242.4" x2="160.48" y2="276.69" gradientTransform="translate(84.51 -122.85) rotate(15.77)" xlink:href="#linear-gradient-7"/><linearGradient id="linear-gradient-38" x1="126.45" y1="211.61" x2="76.45" y2="361.6" gradientTransform="matrix(1, 0, 0, 1, 0, 0)" xlink:href="#linear-gradient-5"/></defs><path d="M414.21,169s15.8,20.28-67.66,44.77-81.12-1.11-81.12-1.11S223.79,235.45,240,262.41c0,0,23.25,35.46,122.67,6.29s99.81-71.58,99.81-71.58C461.56,165.67,414.21,169,414.21,169Z" transform="translate(-36.72 0)" style="fill:#6c7cbc"/><path d="M414.21,169s15.8,20.28-67.66,44.77-81.12-1.11-81.12-1.11S223.79,235.45,240,262.41c0,0,23.25,35.46,122.67,6.29s99.81-71.58,99.81-71.58C461.56,165.67,414.21,169,414.21,169Z" transform="translate(-36.72 0)" style="fill:url(#linear-gradient)"/><path d="M413.59,166.91s15.81,20.28-67.65,44.78-81.13-1.11-81.13-1.11-41.64,22.79-25.42,49.74c0,0,23.25,35.47,122.67,6.29S461.87,195,461.87,195C461,163.59,413.59,166.91,413.59,166.91Z" transform="translate(-36.72 0)" style="fill:url(#linear-gradient-2)"/><path d="M455.78,146s-29.4-43.92-133.09-13.49S218,215.76,218,215.76s8.35,33.34,23.11,48c0,0-11.45-36.43,99.84-69.09s121.35,4.17,121.35,4.17C466,175.77,455.78,146,455.78,146Z" transform="translate(-36.72 0)" style="fill:url(#linear-gradient-3)"/><rect x="340.54" y="351.12" width="20.04" height="39.97" transform="translate(-127.03 113.73) rotate(-16.35)" style="fill:url(#linear-gradient-4)"/><path d="M419.16,337.7c-9.25-31.52-3.72-81.29-3.72-81.29L365.39,278l-53.77,8.91s31.55,38.89,40.8,70.4l29.11,99.19s12.45,52.73,48.6,42.12,18.14-61.71,18.14-61.71Z" transform="translate(-36.72 0)" style="fill:url(#linear-gradient-5)"/><path d="M414.47,230.58c-13.24-28.57-51.4-17.38-51.4-17.38l-15.37,4.51-15.36,4.51s-38.16,11.2-33.86,42.4a25.38,25.38,0,0,0,5,11.72c7.05,9.41,24.32,31.47,39.09,42.54a26.53,26.53,0,0,0,23.36,4.25l11.74-3.45,11.74-3.44A26.51,26.51,0,0,0,406.73,300c6.45-17.3,9.06-45.19,9.91-56.92A25.45,25.45,0,0,0,414.47,230.58Z" transform="translate(-36.72 0)" style="fill:url(#linear-gradient-6)"/><path d="M455.93,143.92s-29.58-44.18-133.87-13.58S216.77,214.1,216.77,214.1s8.39,33.54,23.23,48.31c0,0-11.51-36.64,100.43-69.49s122.05,4.2,122.05,4.2C466.17,173.89,455.93,143.92,455.93,143.92Z" transform="translate(-36.72 0)" style="fill:url(#linear-gradient-7)"/><rect x="309.97" y="152.16" width="38.16" height="12.56" rx="5.07" transform="translate(-68.02 99.07) rotate(-16.36)" style="fill:url(#linear-gradient-8)"/><rect x="308.83" y="148.27" width="38.16" height="12.56" rx="5.07" transform="translate(-66.97 98.59) rotate(-16.36)" style="fill:url(#linear-gradient-9)"/><path d="M344.44,373c3.11,10.62,4.09,19.69,2.17,20.25s-6-7.59-9.12-18.21-4.09-19.69-2.17-20.26S341.32,362.34,344.44,373Z" transform="translate(-36.72 0)" style="fill:url(#linear-gradient-10)"/><circle cx="343.28" cy="262.58" r="23.57" transform="translate(-117.93 343.8) rotate(-48.24)" style="fill:url(#linear-gradient-11)"/><path d="M362.74,256.87A20.28,20.28,0,1,0,349,282,20.29,20.29,0,0,0,362.74,256.87Z" transform="translate(-36.72 0)" style="fill:url(#linear-gradient-12)"/><path d="M354.41,248.67a16.9,16.9,0,1,0-11.46,21A16.92,16.92,0,0,0,354.41,248.67Z" transform="translate(-36.72 0)" style="fill:url(#linear-gradient-13)"/><path d="M351.57,249.51a13.94,13.94,0,1,0-9.45,17.3A13.94,13.94,0,0,0,351.57,249.51Z" transform="translate(-36.72 0)" style="fill:url(#linear-gradient-14)"/><path d="M392.86,237c1.5,5.13-2.19,10.74-8.26,12.52s-12.21-.94-13.71-6.07,2.19-10.75,8.25-12.53S391.35,231.86,392.86,237Z" transform="translate(-36.72 0)" style="fill:url(#linear-gradient-15)"/><path d="M390.6,237.66c1.2,4.08-1.74,8.54-6.56,10s-9.7-.74-10.9-4.83,1.74-8.53,6.56-9.95S389.41,233.58,390.6,237.66Z" transform="translate(-36.72 0)" style="fill:url(#linear-gradient-16)"/><path d="M399.9,261c1.51,5.13-2.19,10.74-8.26,12.52s-12.2-.94-13.71-6.08,2.19-10.74,8.26-12.52S398.39,255.86,399.9,261Z" transform="translate(-36.72 0)" style="fill:url(#linear-gradient-17)"/><path d="M397.65,261.66c1.19,4.08-1.74,8.54-6.57,9.95s-9.7-.74-10.9-4.83,1.74-8.53,6.57-9.95S396.45,257.58,397.65,261.66Z" transform="translate(-36.72 0)" style="fill:url(#linear-gradient-18)"/><path d="M448.27,436.88l-3.17-10.8c3.07,16.44,4,44.32-22.06,52-20.39,6-33.54-7.35-41.33-20.86,1.63,6.2,14.74,51.29,48.42,41.4C466.29,488,448.27,436.88,448.27,436.88Z" transform="translate(-36.72 0)" style="fill:url(#linear-gradient-19)"/><path d="M235.12,91.85s2.61,25.58-81.11,2S85.9,49.72,85.9,49.72s-47.38-2.83-48,28.62c0,0,.83,42.39,100.54,70.54s122.6-7.55,122.6-7.55C277,114.21,235.12,91.85,235.12,91.85Z" transform="translate(-36.72 0)" style="fill:#6c7cbc"/><path d="M235.12,91.85s2.61,25.58-81.11,2S85.9,49.72,85.9,49.72s-47.38-2.83-48,28.62c0,0,.83,42.39,100.54,70.54s122.6-7.55,122.6-7.55C277,114.21,235.12,91.85,235.12,91.85Z" transform="translate(-36.72 0)" style="fill:url(#linear-gradient-20)"/><path d="M235.71,89.76s2.61,25.58-81.11,1.95S86.49,47.63,86.49,47.63s-47.38-2.84-48,28.62c0,0,.83,42.39,100.54,70.54s122.6-7.55,122.6-7.55C277.58,112.12,235.71,89.76,235.71,89.76Z" transform="translate(-36.72 0)" style="fill:url(#linear-gradient-21)"/><path d="M282.57,94.46S281,41.63,177,12.27,44.09,27.13,44.09,27.13s-10.66,32.68-6,53c0,0,9.68-36.94,121.3-5.43S260,142.72,260,142.72C275.36,125.11,282.57,94.46,282.57,94.46Z" transform="translate(-36.72 0)" style="fill:url(#linear-gradient-22)"/><rect x="63.74" y="209.2" width="20.04" height="39.97" transform="translate(28.32 -11.42) rotate(15.77)" style="fill:url(#linear-gradient-23)"/><path d="M149.62,237.36c8.93-31.61,40.07-70.82,40.07-70.82l-53.85-8.36-50.27-21s6,49.71-2.89,81.32L54.6,318s-17.49,51.27,18.77,61.51,48.17-42.62,48.17-42.62Z" transform="translate(-36.72 0)" style="fill:url(#linear-gradient-24)"/><path d="M202.6,144.14c4-31.24-34.29-42-34.29-42L152.9,97.75,137.49,93.4S99.22,82.59,86.27,111.3a25.54,25.54,0,0,0-2,12.57c1,11.71,3.87,39.58,10.5,56.81a26.49,26.49,0,0,0,17.52,16L124,200l11.77,3.32a26.47,26.47,0,0,0,23.31-4.48c14.67-11.23,31.71-33.46,38.66-42.94A25.38,25.38,0,0,0,202.6,144.14Z" transform="translate(-36.72 0)" style="fill:url(#linear-gradient-25)"/><path d="M283.79,92.79s-1.56-53.14-106.15-82.67-133.72,15-133.72,15-10.72,32.86-6,53.27c0,0,9.73-37.16,122-5.46s101.14,68.45,101.14,68.45C276.53,123.62,283.79,92.79,283.79,92.79Z" transform="translate(-36.72 0)" style="fill:url(#linear-gradient-26)"/><rect x="162.34" y="18.55" width="12.56" height="38.16" rx="5.07" transform="translate(49.88 189.68) rotate(-74.24)" style="fill:url(#linear-gradient-27)"/><rect x="163.44" y="14.65" width="12.56" height="38.16" rx="5.07" transform="translate(54.42 187.9) rotate(-74.24)" style="fill:url(#linear-gradient-28)"/><path d="M67.58,227.5c-3,10.66-7,18.85-8.93,18.31s-1-9.62,2-20.28,7-18.85,8.93-18.3S70.59,216.85,67.58,227.5Z" transform="translate(-36.72 0)" style="fill:url(#linear-gradient-29)"/><path d="M148,139.8a23.57,23.57,0,1,0-29.09,16.29A23.57,23.57,0,0,0,148,139.8Z" transform="translate(-36.72 0)" style="fill:url(#linear-gradient-30)"/><path d="M144.81,138.91a20.28,20.28,0,1,0-25,14A20.29,20.29,0,0,0,144.81,138.91Z" transform="translate(-36.72 0)" style="fill:url(#linear-gradient-31)"/><path d="M142.12,127.54a16.91,16.91,0,1,0-20.86,11.67A16.9,16.9,0,0,0,142.12,127.54Z" transform="translate(-36.72 0)" style="fill:url(#linear-gradient-32)"/><circle cx="125.85" cy="122.94" r="13.94" transform="translate(-80.43 76.03) rotate(-28.86)" style="fill:url(#linear-gradient-33)"/><path d="M180.89,138.09c-1.46,5.15-7.57,7.93-13.66,6.22s-9.83-7.29-8.38-12.44,7.57-7.93,13.65-6.22S182.34,132.94,180.89,138.09Z" transform="translate(-36.72 0)" style="fill:url(#linear-gradient-34)"/><path d="M178.63,137.45c-1.16,4.1-6,6.31-10.85,4.94s-7.83-5.79-6.67-9.88,6-6.31,10.85-4.94S179.78,133.36,178.63,137.45Z" transform="translate(-36.72 0)" style="fill:url(#linear-gradient-35)"/><path d="M174.09,162.16c-1.45,5.15-7.57,7.93-13.65,6.22s-9.84-7.29-8.38-12.44,7.56-7.93,13.65-6.22S175.54,157,174.09,162.16Z" transform="translate(-36.72 0)" style="fill:url(#linear-gradient-36)"/><path d="M171.83,161.52c-1.16,4.1-6,6.31-10.85,4.94s-7.82-5.79-6.66-9.88,6-6.31,10.85-4.94S173,157.43,171.83,161.52Z" transform="translate(-36.72 0)" style="fill:url(#linear-gradient-37)"/><path d="M80.65,356.53C54,349,55.48,320.06,58.54,304c-2.4,8.52-3.94,14-3.94,14s-17.49,51.27,18.77,61.51,48.17-42.62,48.17-42.62l1-3.7C115.22,347.31,102.05,362.57,80.65,356.53Z" transform="translate(-36.72 0)" style="fill:url(#linear-gradient-38)"/></svg>